<svg width="110" height="23" viewBox="0 0 110 23" fill="none" xmlns="http://www.w3.org/2000/svg">
<path d="M2.44363 17.132C1.91563 17.132 1.46097 16.9487 1.07963 16.582C0.712966 16.2007 0.529633 15.746 0.529633 15.218C0.529633 14.69 0.712966 14.2427 1.07963 13.876C1.46097 13.5093 1.91563 13.326 2.44363 13.326C2.97163 13.326 3.41897 13.5093 3.78563 13.876C4.1523 14.2427 4.33563 14.69 4.33563 15.218C4.33563 15.746 4.1523 16.2007 3.78563 16.582C3.41897 16.9487 2.97163 17.132 2.44363 17.132ZM6.61384 6.22H9.31984V7.628H9.49584C9.83317 7.1 10.2878 6.67467 10.8598 6.352C11.4465 6.02933 12.0918 5.868 12.7958 5.868C13.6172 5.868 14.3065 6.05867 14.8638 6.44C15.4212 6.82133 15.8172 7.29067 16.0518 7.848C16.3892 7.30533 16.8658 6.84333 17.4818 6.462C18.0978 6.066 18.8458 5.868 19.7258 5.868C20.3858 5.868 20.9578 5.978 21.4418 6.198C21.9258 6.40333 22.3218 6.69667 22.6298 7.078C22.9525 7.45933 23.1945 7.92133 23.3558 8.464C23.5172 8.992 23.5978 9.57133 23.5978 10.202V17H20.7158V10.73C20.7158 9.26333 20.1145 8.53 18.9118 8.53C18.5305 8.53 18.1932 8.618 17.8998 8.794C17.6065 8.95533 17.3572 9.18267 17.1518 9.476C16.9612 9.75467 16.8072 10.092 16.6898 10.488C16.5872 10.884 16.5358 11.3093 16.5358 11.764V17H13.6538V10.73C13.6538 9.26333 13.0232 8.53 11.7618 8.53C11.3952 8.53 11.0725 8.618 10.7938 8.794C10.5152 8.95533 10.2805 9.18267 10.0898 9.476C9.89917 9.75467 9.7525 10.092 9.64984 10.488C9.54717 10.884 9.49584 11.3093 9.49584 11.764V17H6.61384V6.22ZM36.1793 14.404C35.6806 15.284 35.0059 15.9953 34.1553 16.538C33.3193 17.0807 32.2926 17.352 31.0753 17.352C30.2539 17.352 29.4913 17.2127 28.7873 16.934C28.0979 16.6407 27.4966 16.2373 26.9833 15.724C26.4699 15.2107 26.0666 14.6093 25.7733 13.92C25.4946 13.216 25.3553 12.446 25.3553 11.61C25.3553 10.8327 25.4946 10.0993 25.7733 9.41C26.0519 8.706 26.4406 8.09733 26.9393 7.584C27.4379 7.056 28.0246 6.638 28.6993 6.33C29.3886 6.022 30.1439 5.868 30.9653 5.868C31.8306 5.868 32.6006 6.01467 33.2753 6.308C33.9499 6.58667 34.5146 6.98267 34.9693 7.496C35.4239 7.99467 35.7686 8.58867 36.0033 9.278C36.2379 9.96733 36.3553 10.7153 36.3553 11.522C36.3553 11.6247 36.3553 11.7127 36.3553 11.786C36.3406 11.874 36.3333 11.9547 36.3333 12.028C36.3186 12.1013 36.3113 12.182 36.3113 12.27H28.1933C28.2519 12.71 28.3693 13.0913 28.5453 13.414C28.7359 13.722 28.9633 13.986 29.2273 14.206C29.5059 14.4113 29.8066 14.5653 30.1293 14.668C30.4519 14.756 30.7819 14.8 31.1193 14.8C31.7793 14.8 32.3219 14.6533 32.7473 14.36C33.1873 14.052 33.5319 13.6707 33.7813 13.216L36.1793 14.404ZM33.5613 10.224C33.5466 10.0333 33.4806 9.82067 33.3633 9.586C33.2606 9.35133 33.0993 9.13133 32.8793 8.926C32.6739 8.72067 32.4099 8.552 32.0873 8.42C31.7793 8.288 31.4053 8.222 30.9653 8.222C30.3493 8.222 29.8066 8.398 29.3373 8.75C28.8679 9.102 28.5379 9.59333 28.3473 10.224H33.5613ZM40.9019 7.628H41.0779C41.4152 7.08533 41.8699 6.66 42.4419 6.352C43.0139 6.02933 43.6665 5.868 44.3999 5.868C45.0745 5.868 45.6685 5.978 46.1819 6.198C46.6952 6.418 47.1132 6.73333 47.4359 7.144C47.7732 7.54 48.0225 8.024 48.1839 8.596C48.3599 9.15333 48.4479 9.77667 48.4479 10.466V17H45.5659V10.818C45.5659 10.0407 45.3899 9.46867 45.0379 9.102C44.7005 8.72067 44.2019 8.53 43.5419 8.53C43.1459 8.53 42.7939 8.618 42.4859 8.794C42.1925 8.95533 41.9359 9.18267 41.7159 9.476C41.5105 9.75467 41.3492 10.092 41.2319 10.488C41.1292 10.8693 41.0779 11.28 41.0779 11.72V17H38.1959V6.22H40.9019V7.628ZM51.4581 8.684H49.5661V6.22H51.4581V2.92H54.3401V6.22H56.9801V8.684H54.3401V12.864C54.3401 13.1133 54.3621 13.348 54.4061 13.568C54.4648 13.7733 54.5674 13.9493 54.7141 14.096C54.9194 14.3307 55.2128 14.448 55.5941 14.448C55.8434 14.448 56.0414 14.426 56.1881 14.382C56.3348 14.3233 56.4741 14.25 56.6061 14.162L57.4201 16.692C57.0828 16.8533 56.7161 16.9707 56.3201 17.044C55.9388 17.132 55.5134 17.176 55.0441 17.176C54.5014 17.176 54.0101 17.0953 53.5701 16.934C53.1448 16.758 52.7854 16.5233 52.4921 16.23C51.8028 15.57 51.4581 14.6313 51.4581 13.414V8.684ZM64.0967 5.868C64.9327 5.868 65.6954 6.01467 66.3847 6.308C67.0887 6.58667 67.6901 6.98267 68.1887 7.496C68.7021 7.99467 69.0981 8.596 69.3767 9.3C69.6701 10.004 69.8167 10.774 69.8167 11.61C69.8167 12.446 69.6701 13.216 69.3767 13.92C69.0981 14.624 68.7021 15.2327 68.1887 15.746C67.6901 16.2447 67.0887 16.6407 66.3847 16.934C65.6954 17.2127 64.9327 17.352 64.0967 17.352C63.2607 17.352 62.4907 17.2127 61.7867 16.934C61.0974 16.6407 60.4961 16.2447 59.9827 15.746C59.4841 15.2327 59.0881 14.624 58.7947 13.92C58.5161 13.216 58.3767 12.446 58.3767 11.61C58.3767 10.774 58.5161 10.004 58.7947 9.3C59.0881 8.596 59.4841 7.99467 59.9827 7.496C60.4961 6.98267 61.0974 6.58667 61.7867 6.308C62.4907 6.01467 63.2607 5.868 64.0967 5.868ZM64.0967 14.69C64.4634 14.69 64.8154 14.624 65.1527 14.492C65.5047 14.3453 65.8127 14.14 66.0767 13.876C66.3407 13.612 66.5461 13.2893 66.6927 12.908C66.8541 12.5267 66.9347 12.094 66.9347 11.61C66.9347 11.126 66.8541 10.6933 66.6927 10.312C66.5461 9.93067 66.3407 9.608 66.0767 9.344C65.8127 9.08 65.5047 8.882 65.1527 8.75C64.8154 8.60333 64.4634 8.53 64.0967 8.53C63.7154 8.53 63.3561 8.60333 63.0187 8.75C62.6814 8.882 62.3807 9.08 62.1167 9.344C61.8527 9.608 61.6401 9.93067 61.4787 10.312C61.3321 10.6933 61.2587 11.126 61.2587 11.61C61.2587 12.094 61.3321 12.5267 61.4787 12.908C61.6401 13.2893 61.8527 13.612 62.1167 13.876C62.3807 14.14 62.6814 14.3453 63.0187 14.492C63.3561 14.624 63.7154 14.69 64.0967 14.69ZM71.4537 6.22H74.1597V7.716H74.3357C74.4677 7.452 74.6437 7.21 74.8637 6.99C75.0837 6.77 75.3257 6.57933 75.5897 6.418C75.8683 6.25667 76.1617 6.132 76.4697 6.044C76.7923 5.956 77.1077 5.912 77.4157 5.912C77.797 5.912 78.1197 5.94867 78.3837 6.022C78.6623 6.09533 78.897 6.19067 79.0877 6.308L78.3177 8.926C78.1417 8.838 77.9437 8.772 77.7237 8.728C77.5183 8.66933 77.2617 8.64 76.9537 8.64C76.5577 8.64 76.1983 8.72067 75.8757 8.882C75.553 9.02867 75.2743 9.24133 75.0397 9.52C74.8197 9.79867 74.6437 10.1287 74.5117 10.51C74.3943 10.8767 74.3357 11.28 74.3357 11.72V17H71.4537V6.22ZM82.0187 4.658C81.7693 4.658 81.5273 4.614 81.2927 4.526C81.0727 4.42333 80.8747 4.29133 80.6987 4.13C80.5373 3.954 80.4053 3.756 80.3027 3.536C80.2147 3.316 80.1707 3.074 80.1707 2.81C80.1707 2.546 80.2147 2.304 80.3027 2.084C80.4053 1.864 80.5373 1.67333 80.6987 1.512C80.8747 1.336 81.0727 1.204 81.2927 1.116C81.5273 1.01333 81.7693 0.961999 82.0187 0.961999C82.532 0.961999 82.972 1.14533 83.3387 1.512C83.7053 1.864 83.8887 2.29667 83.8887 2.81C83.8887 3.32333 83.7053 3.76333 83.3387 4.13C82.972 4.482 82.532 4.658 82.0187 4.658ZM80.5887 17V6.22H83.4707V17H80.5887ZM88.812 7.628H88.988C89.3254 7.08533 89.78 6.66 90.352 6.352C90.924 6.02933 91.5767 5.868 92.31 5.868C92.9847 5.868 93.5787 5.978 94.092 6.198C94.6054 6.418 95.0234 6.73333 95.346 7.144C95.6834 7.54 95.9327 8.024 96.094 8.596C96.27 9.15333 96.358 9.77667 96.358 10.466V17H93.476V10.818C93.476 10.0407 93.3 9.46867 92.948 9.102C92.6107 8.72067 92.112 8.53 91.452 8.53C91.056 8.53 90.704 8.618 90.396 8.794C90.1027 8.95533 89.846 9.18267 89.626 9.476C89.4207 9.75467 89.2594 10.092 89.142 10.488C89.0394 10.8693 88.988 11.28 88.988 11.72V17H86.106V6.22H88.812V7.628ZM103.603 22.104C102.841 22.104 102.159 22.0013 101.557 21.796C100.971 21.6053 100.457 21.3487 100.017 21.026C99.5774 20.718 99.2107 20.3733 98.9174 19.992C98.6241 19.6107 98.4114 19.2293 98.2794 18.848L101.029 17.748C101.235 18.32 101.572 18.76 102.041 19.068C102.511 19.3907 103.031 19.552 103.603 19.552C104.513 19.552 105.231 19.266 105.759 18.694C106.287 18.1367 106.551 17.352 106.551 16.34V15.592H106.375C106.038 16.0613 105.591 16.4353 105.033 16.714C104.491 16.978 103.845 17.11 103.097 17.11C102.452 17.11 101.821 16.978 101.205 16.714C100.604 16.45 100.069 16.076 99.5994 15.592C99.1301 15.0933 98.7487 14.4993 98.4554 13.81C98.1621 13.1207 98.0154 12.3507 98.0154 11.5C98.0154 10.6493 98.1621 9.87933 98.4554 9.19C98.7487 8.486 99.1301 7.892 99.5994 7.408C100.069 6.90933 100.604 6.528 101.205 6.264C101.821 6 102.452 5.868 103.097 5.868C103.845 5.868 104.491 6.00733 105.033 6.286C105.591 6.55 106.038 6.91667 106.375 7.386H106.551V6.22H109.301V16.23C109.301 17.1393 109.162 17.9533 108.883 18.672C108.605 19.4053 108.216 20.0213 107.717 20.52C107.219 21.0333 106.617 21.422 105.913 21.686C105.224 21.9647 104.454 22.104 103.603 22.104ZM103.713 14.514C104.065 14.514 104.41 14.448 104.747 14.316C105.099 14.184 105.407 13.9933 105.671 13.744C105.935 13.48 106.148 13.1647 106.309 12.798C106.471 12.4167 106.551 11.984 106.551 11.5C106.551 11.016 106.471 10.5833 106.309 10.202C106.148 9.82067 105.935 9.50533 105.671 9.256C105.407 8.992 105.099 8.794 104.747 8.662C104.41 8.53 104.065 8.464 103.713 8.464C103.361 8.464 103.017 8.53 102.679 8.662C102.342 8.794 102.041 8.992 101.777 9.256C101.513 9.52 101.301 9.84267 101.139 10.224C100.978 10.5907 100.897 11.016 100.897 11.5C100.897 11.984 100.978 12.4167 101.139 12.798C101.301 13.1647 101.513 13.48 101.777 13.744C102.041 13.9933 102.342 14.184 102.679 14.316C103.017 14.448 103.361 14.514 103.713 14.514Z" fill="black"/>
</svg>
